name rise44.9368peak50.754fall52.0217.mot
datacolumns 19
datarows 15
range 15.06328200000000 15.08661300000000
endheader
time	ground_force1_vx	ground_force1_vy	ground_force1_vz	ground_force1_px	ground_force1_py	ground_force1_pz	ground_force2_vx	ground_force2_vy	ground_force2_vz	ground_force2_px	ground_force2_py	ground_force2_pz	ground_torque1_x	ground_torque1_y	ground_torque1_z	ground_torque2_x	ground_torque2_y	ground_torque2_z	
15.06328200000000	-2.63731000000000	715.43710399999998	50.62320500000000	0.23451500000000	0.00000000000000	0.14294600000000	0.00000000000000	0.00000000000000	0.00000000000000	0.00000000000000	0.00000000000000	0.00000000000000	0.00000000000000	24.33469900000000	0.00000000000000	0.00000000000000	0.00000000000000	0.00000000000000	
15.06494800000000	-3.16284100000000	715.59550899999999	50.61775100000000	0.23305500000000	0.00000000000000	0.14295000000000	0.00000000000000	0.00000000000000	0.00000000000000	0.00000000000000	0.00000000000000	0.00000000000000	0.00000000000000	24.36521900000000	0.00000000000000	0.00000000000000	0.00000000000000	0.00000000000000	
15.06661500000000	-3.69207100000000	715.76631299999997	50.61451600000000	0.23161100000000	0.00000000000000	0.14295200000000	0.00000000000000	0.00000000000000	0.00000000000000	0.00000000000000	0.00000000000000	0.00000000000000	0.00000000000000	24.39938500000000	0.00000000000000	0.00000000000000	0.00000000000000	0.00000000000000	
15.06827800000000	-4.22477800000000	715.94931899999995	50.61339900000000	0.23018400000000	0.00000000000000	0.14295300000000	0.00000000000000	0.00000000000000	0.00000000000000	0.00000000000000	0.00000000000000	0.00000000000000	0.00000000000000	24.43714800000000	0.00000000000000	0.00000000000000	0.00000000000000	0.00000000000000	
15.06994300000000	-4.76072500000000	716.14437899999996	50.61430500000000	0.22877700000000	0.00000000000000	0.14295200000000	0.00000000000000	0.00000000000000	0.00000000000000	0.00000000000000	0.00000000000000	0.00000000000000	0.00000000000000	24.47845800000000	0.00000000000000	0.00000000000000	0.00000000000000	0.00000000000000	
15.07161500000000	-5.29966200000000	716.35139200000003	50.61715100000000	0.22739000000000	0.00000000000000	0.14295000000000	0.00000000000000	0.00000000000000	0.00000000000000	0.00000000000000	0.00000000000000	0.00000000000000	0.00000000000000	24.52326400000000	0.00000000000000	0.00000000000000	0.00000000000000	0.00000000000000	
15.07327800000000	-5.84132700000000	716.57030499999996	50.62185900000000	0.22602400000000	0.00000000000000	0.14294700000000	0.00000000000000	0.00000000000000	0.00000000000000	0.00000000000000	0.00000000000000	0.00000000000000	0.00000000000000	24.57151300000000	0.00000000000000	0.00000000000000	0.00000000000000	0.00000000000000	
15.07495000000000	-6.38544400000000	716.80111499999998	50.62836200000000	0.22468200000000	0.00000000000000	0.14294200000000	0.00000000000000	0.00000000000000	0.00000000000000	0.00000000000000	0.00000000000000	0.00000000000000	0.00000000000000	24.62315300000000	0.00000000000000	0.00000000000000	0.00000000000000	0.00000000000000	
15.07661800000000	-6.93173300000000	717.04386499999998	50.63660000000000	0.22336300000000	0.00000000000000	0.14293500000000	0.00000000000000	0.00000000000000	0.00000000000000	0.00000000000000	0.00000000000000	0.00000000000000	0.00000000000000	24.67813200000000	0.00000000000000	0.00000000000000	0.00000000000000	0.00000000000000	
15.07829100000000	-7.47990500000000	717.29864899999995	50.64652200000000	0.22206900000000	0.00000000000000	0.14292700000000	0.00000000000000	0.00000000000000	0.00000000000000	0.00000000000000	0.00000000000000	0.00000000000000	0.00000000000000	24.73639400000000	0.00000000000000	0.00000000000000	0.00000000000000	0.00000000000000	
15.07995000000000	-8.02966300000000	717.56560700000000	50.65808500000000	0.22080200000000	0.00000000000000	0.14291700000000	0.00000000000000	0.00000000000000	0.00000000000000	0.00000000000000	0.00000000000000	0.00000000000000	0.00000000000000	24.79788400000000	0.00000000000000	0.00000000000000	0.00000000000000	0.00000000000000	
15.08161400000000	-8.58071000000000	717.84492699999998	50.67125400000000	0.21956100000000	0.00000000000000	0.14290500000000	0.00000000000000	0.00000000000000	0.00000000000000	0.00000000000000	0.00000000000000	0.00000000000000	0.00000000000000	24.86254700000000	0.00000000000000	0.00000000000000	0.00000000000000	0.00000000000000	
15.08328400000000	-9.13274600000000	718.13684200000000	50.68600100000000	0.21834800000000	0.00000000000000	0.14289200000000	0.00000000000000	0.00000000000000	0.00000000000000	0.00000000000000	0.00000000000000	0.00000000000000	0.00000000000000	24.93032400000000	0.00000000000000	0.00000000000000	0.00000000000000	0.00000000000000	
15.08494300000000	-9.68547000000000	718.44163000000003	50.70230700000000	0.21716300000000	0.00000000000000	0.14287700000000	0.00000000000000	0.00000000000000	0.00000000000000	0.00000000000000	0.00000000000000	0.00000000000000	0.00000000000000	25.00115600000000	0.00000000000000	0.00000000000000	0.00000000000000	0.00000000000000	
15.08661300000000	-10.23858300000000	718.75961299999994	50.72016100000000	0.21600800000000	0.00000000000000	0.14286000000000	0.00000000000000	0.00000000000000	0.00000000000000	0.00000000000000	0.00000000000000	0.00000000000000	0.00000000000000	25.07498400000000	0.00000000000000	0.00000000000000	0.00000000000000	0.00000000000000	
